<svg xmlns="http://www.w3.org/2000/svg" viewBox="0 0 64 64" id="fire"><path fill="#222" d="M33.81,61.77a9.87,9.87,0,0,1-1.5-.09,2,2,0,1,1,.62-4c.35.05,9.11,1.14,15-10.07,6-11.55-4.63-29-4.74-29.21a2,2,0,0,1,3.4-2.11c.49.8,12,19.59,4.89,33.17C45.67,60.57,37.22,61.77,33.81,61.77Z"></path><path fill="#222" d="M20.33,57.83a2,2,0,0,1-1.19-.4C13,52.81,9.82,45.19,10.3,36c.39-7.43,4.4-12.39,8-16.78,3.71-4.59,6.91-8.55,6.42-14.78a2,2,0,0,1,3.1-1.83c.53.35,11.82,8,12.66,22.34a.86.86,0,0,0,.07-.1,2,2,0,0,1,3.23,2.37A15.33,15.33,0,0,1,39.3,31.3a2,2,0,0,1-3-1.95,25.27,25.27,0,0,0-7.81-21c-.82,5.46-4,9.44-7.16,13.31C17.89,26,14.61,30,14.29,36.16c-.41,7.86,2.16,14.27,7.24,18.07a2,2,0,0,1,.41,2.8A2,2,0,0,1,20.33,57.83Z"></path><path fill="#222" d="M32.62,61.71a2.17,2.17,0,0,1-.62-.1C27.92,60.28,21,55.3,24,46a2,2,0,0,1,1.09-1.21,2,2,0,0,1,1.63,0l3.09,1.4C30.51,44.84,31.27,42,30,37a2,2,0,0,1,3.89-1c2.44,9.84-1.61,13.73-2.08,14.14a2,2,0,0,1-2.13.31l-2.35-1c-.5,4.81,3.16,7.14,5,8,5.51-4.21,6.88-9.15,3.84-14a2,2,0,0,1,3.39-2.12c4.36,7,2.19,14.48-5.81,20.05A2.05,2.05,0,0,1,32.62,61.71Z"></path></svg>